<?xml version="1.0" encoding="UTF-8"?>
<!DOCTYPE svg PUBLIC "-//W3C//DTD SVG 1.1//EN" "http://www.w3.org/Graphics/SVG/1.1/DTD/svg11.dtd">
<svg version="1.1" id="Layer_1" xmlns="http://www.w3.org/2000/svg" xmlns:xlink="http://www.w3.org/1999/xlink" x="0px" y="0px" width="32px" height="32px" viewBox="0 0 32 32" enable-background="new 0 0 32 32" xml:space="preserve">
  <g id="main">
    <g id="icon">
      <path d="M0.5,28L0.5393,28.19L0.6465,28.35L0.8055,28.46L1,28.5L17.71,28.5L17.54,28.16L17.19,27.16L16.97,26.1L16.9,25L16.94,24.17L17.06,23.37L17.26,22.59L17.54,21.85L17.88,21.14L18.28,20.47L18.75,19.85L19.27,19.27L19.85,18.75L20.47,18.28L21.14,17.88L21.85,17.54L22.59,17.26L23.37,17.06L24.17,16.94L25,16.9L26.1,16.97L27.16,17.19L28.16,17.54L29.1,18.01L29.5,18.28L29.5,6.5L0.5,6.5zz" fill="#FFFFFF"/>
      <path d="M0,6.5L0,28L0,28.05L0.009961,28.1L0.04922,28.29L0.06895,28.39L0.1248,28.47L0.232,28.63L0.2863,28.71L0.367,28.77L0.5258,28.88L0.6086,28.93L0.7064,28.95L0.901,28.99L0.95,29L1,29L17.96,29L17.54,28.16L17.48,28L1.05,28L1.008,27.99L1,27.95L1,7L29,7L29,17.96L29.1,18.01L29.96,18.59L30,18.63L30,6.5L30,6L29.5,6L0.5,6L0,6zz" fill="#6D6E71"/>
      <path d="M1.118,1.029L0.8551,1.11L0.6174,1.239L0.4102,1.41L0.2391,1.617L0.11,1.855L0.02852,2.118L0,2.4L0,7L30,7L30,2.4L29.97,2.118L29.89,1.855L29.76,1.617L29.59,1.41L29.38,1.239L29.14,1.11L28.88,1.029L28.6,1L1.4,1zz" fill="#8C53A1"/>
      <path d="M13.18,14.11L13.01,14.4L13.06,14.73L13.31,14.96L13.5,15L26.6,15L26.92,14.89L27.09,14.6L27.04,14.27L26.79,14.04L26.6,14L13.5,14zz" fill="#B4B4B5"/>
      <path d="M13.5,11.5L26.5,11.5L26.5,9.5L13.5,9.5zM17.5,15.5L19.5,15.5L19.5,13.5L17.5,13.5zM13.5,19.5L19.07,19.5L19.27,19.27L19.85,18.75L20.47,18.28L21.14,17.88L21.5,17.7L21.5,17.5L13.5,17.5zM10.5,24.5L16.93,24.5L16.94,24.17L17.06,23.37L17.26,22.59L17.3,22.5L10.5,22.5zz" fill="#E6E7E8"/>
      <path d="M13.18,9.113L13.01,9.402L13,9.5L13,11.5L13.11,11.82L13.4,11.99L13.5,12L26.5,12L26.82,11.89L26.99,11.6L27,11.5L27,9.5L26.89,9.183L26.6,9.01L26.5,9L13.5,9zM26,10L26,11L14,11L14,10zM17.18,13.11L17.01,13.4L17,13.5L17,15.5L17.11,15.82L17.4,15.99L17.5,16L19.5,16L19.82,15.89L19.99,15.6L20,15.5L20,13.5L19.89,13.18L19.6,13.01L19.5,13L17.5,13zM19,14L19,15L18,15L18,14zM13.18,17.11L13.01,17.4L13,17.5L13,19.5L13.11,19.82L13.4,19.99L13.5,20L18.64,20L18.75,19.85L19.27,19.27L19.57,19L14,19L14,18L20.94,18L21.14,17.88L21.85,17.54L21.99,17.48L21.89,17.18L21.6,17.01L21.5,17L13.5,17zM10.18,22.11L10.01,22.4L10,22.5L10,24.5L10.11,24.82L10.4,24.99L10.5,25L16.9,25L16.94,24.17L16.97,24L11,24L11,23L17.16,23L17.26,22.59L17.48,22L10.5,22zz" fill="#B4B4B5"/>
      <path d="M3.183,10.11L3.01,10.4L3.059,10.73L3.308,10.96L3.5,11L10.5,11L10.82,10.89L10.99,10.6L10.94,10.27L10.69,10.04L10.5,10L3.5,10zM3.183,14.11L3.01,14.4L3.059,14.73L3.308,14.96L3.5,15L10.5,15L10.82,14.89L10.99,14.6L10.94,14.27L10.69,14.04L10.5,14L3.5,14zM3.183,18.11L3.01,18.4L3.059,18.73L3.308,18.96L3.5,19L10.5,19L10.82,18.89L10.99,18.6L10.94,18.27L10.69,18.04L10.5,18L3.5,18zM3.183,23.11L3.01,23.4L3.059,23.73L3.308,23.96L3.5,24L7.5,24L7.817,23.89L7.99,23.6L7.941,23.27L7.692,23.04L7.5,23L3.5,23zz" fill="#B4B4B5"/>
      <path d="M11,24L16.97,24L17,23.79L17,23L11,23zz" fill="#529FBF" opacity="0.53"/>
    </g>
    <g id="overlay">
      <path d="M25,18c-3.866,0,-7,3.134,-7,7c0,3.866,3.134,7,7,7s7,-3.134,7,-7C32,21.134,28.866,18,25,18zM24.0637,29.2446l-0.0111,-0.0114l-0.0008,0.0008l-0.7324,-0.7498l-0.8488,-0.8671l0.0009,-0.0009L20.1,25.1887l1.5851,-1.6191l2.3776,2.4339l4.5904,-4.6525l1.5932,1.6274L24.0637,29.2446z" fill-rule="evenodd" fill="#4EA17E"/>
      <polygon points="30.2463,22.9784 28.6531,21.351 24.0627,26.0035 21.6851,23.5696 20.1,25.1887 22.4715,27.6163 22.4706,27.6172 23.3194,28.4843 24.0518,29.234 24.0526,29.2332 24.0637,29.2446" fill-rule="evenodd" fill="#FFFFFF" stroke-linejoin="miter"/>
    </g>
  </g>
</svg>
